<?xml version="1.0" encoding="UTF-8"?>
<!DOCTYPE svg PUBLIC "-//W3C//DTD SVG 1.1//EN" "http://www.w3.org/Graphics/SVG/1.1/DTD/svg11.dtd">
<svg xmlns="http://www.w3.org/2000/svg" version="1.1" width="24" height="24" viewBox="0 0 24 24">
	<path d="M21 9.09v9.53c0 0.23-0.15 0.38-0.36 0.48L15 21l-6-2.1L3.66 20.97C3.61 21 3.55 21 3.5 21 3.22 21 3 20.78 3 20.5V5.38C3 5.15 3.15 4.97 3.36 4.9L9 3l4.94 1.73c-0.01 0.13-0.04 0.24-0.04 0.37 0 0.57 0.14 1.16 0.35 1.75L9 5v11.89L15 19V8.44c0.8 1.39 1.78 2.53 2.09 2.86l1.11 1.24 1.11-1.24C19.57 11.02 20.3 10.17 21 9.09zM21 5.1c0 2.09-2.79 5.19-2.79 5.19s-2.79-3.1-2.79-5.19c0-1.55 1.24-2.79 2.8-2.79S21 3.55 21 5.1zM19.2 5.1c0-0.55-0.45-1-1-1 -0.55 0-1 0.45-1 1 0 0.55 0.45 1 1 1C18.75 6.1 19.2 5.65 19.2 5.1z"/>
</svg>
