<?xml version="1.0" encoding="utf-8"?>
<!DOCTYPE svg PUBLIC "-//W3C//DTD SVG 1.1//EN" "http://www.w3.org/Graphics/SVG/1.1/DTD/svg11.dtd">
<svg xmlns="http://www.w3.org/2000/svg" width="24" height="24" viewBox="0 0 24 24">
	<path d="M18.58 19.32l-4.71 1.25 1.3-2.23 -7.12-4.15C7.5 14.69 6.79 15 6 15c-1.66 0-3-1.34-3-3 0-1.66 1.34-3 3-3 0.79 0 1.5 0.31 2.04 0.81l7.05-4.11 -1.3-2.23 4.71 1.24L17.26 9.42 15.96 7.19 8.91 11.3C8.96 11.53 9 11.76 9 12s-0.04 0.47-0.09 0.7l7.13 4.15 1.3-2.23L18.58 19.32z" />
</svg>
