<?xml version="1.0" encoding="utf-8"?>
<!-- Generator: Adobe Illustrator 16.0.0, SVG Export Plug-In . SVG Version: 6.00 Build 0)  -->
<!DOCTYPE svg PUBLIC "-//W3C//DTD SVG 1.1//EN" "http://www.w3.org/Graphics/SVG/1.1/DTD/svg11.dtd">
<svg version="1.1" id="Layer_1" xmlns="http://www.w3.org/2000/svg" xmlns:xlink="http://www.w3.org/1999/xlink" x="0px" y="0px"
	 width="24px" height="24px" viewBox="0 0 24 24" enable-background="new 0 0 24 24" xml:space="preserve">
<path fill="#F44336" d="M12,22c-1.383,0-2.683-0.263-3.9-0.787c-1.217-0.525-2.275-1.238-3.175-2.138
	c-0.9-0.9-1.612-1.958-2.137-3.175S2,13.383,2,12s0.263-2.684,0.788-3.9s1.237-2.274,2.137-3.175c0.9-0.899,1.958-1.612,3.175-2.138
	C9.317,2.263,10.617,2,12,2c1.383,0,2.684,0.263,3.9,0.787c1.217,0.525,2.274,1.238,3.175,2.138c0.899,0.9,1.612,1.958,2.138,3.175
	C21.737,9.316,22,10.617,22,12s-0.263,2.684-0.787,3.9c-0.525,1.217-1.238,2.274-2.138,3.175c-0.9,0.899-1.958,1.612-3.175,2.138
	C14.684,21.737,13.383,22,12,22z"/>
<path fill="#FFFFFF" d="M12,17c0.283,0,0.521-0.096,0.713-0.287S13,16.283,13,16s-0.096-0.521-0.287-0.713S12.283,15,12,15
	s-0.521,0.096-0.712,0.287C11.096,15.479,11,15.717,11,16s0.096,0.521,0.288,0.713C11.479,16.904,11.717,17,12,17z"/>
<path fill="#FFFFFF" d="M12,13c0.283,0,0.521-0.096,0.713-0.287S13,12.283,13,12V8c0-0.283-0.096-0.521-0.287-0.713S12.283,7,12,7
	s-0.521,0.096-0.712,0.287C11.096,7.479,11,7.717,11,8v4c0,0.283,0.096,0.521,0.288,0.713C11.479,12.904,11.717,13,12,13z"/>
</svg>
