<?xml version="1.0" encoding="utf-8"?>
<!-- Generator: Adobe Illustrator 16.0.0, SVG Export Plug-In . SVG Version: 6.00 Build 0)  -->
<!DOCTYPE svg PUBLIC "-//W3C//DTD SVG 1.1//EN" "http://www.w3.org/Graphics/SVG/1.1/DTD/svg11.dtd">
<svg version="1.1" id="Layer_1" xmlns="http://www.w3.org/2000/svg" xmlns:xlink="http://www.w3.org/1999/xlink" x="0px" y="0px"
	 width="24px" height="24px" viewBox="0 0 24 24" enable-background="new 0 0 24 24" xml:space="preserve">
<path d="M15,19l-6-2.109V5l6,2.11 M20.5,3c-0.061,0-0.109,0-0.16,0L15,5.1L9,3L3.36,4.9C3.15,4.97,3,5.15,3,5.38V20.5
	C3,20.776,3.224,21,3.5,21c0.05,0,0.11,0,0.16-0.03L9,18.9l6,2.1l5.641-1.9C20.85,19,21,18.85,21,18.62V3.5
	C21,3.224,20.776,3,20.5,3z"/>
<path fill="#FFFFFF" stroke="#FFFFFF" stroke-width="3" stroke-miterlimit="10" d="M18.2,2.306c-1.553,0-2.795,1.242-2.795,2.795
	c0,2.093,2.795,5.192,2.795,5.192s2.795-3.099,2.795-5.192C20.995,3.548,19.753,2.306,18.2,2.306"/>
<path d="M18.2,2.306c-1.553,0-2.795,1.242-2.795,2.795c0,2.093,2.795,5.192,2.795,5.192s2.795-3.099,2.795-5.192
	C20.995,3.548,19.753,2.306,18.2,2.306z M18.2,6.101c-0.553,0-1-0.447-1-1c0-0.552,0.448-1,1-1c0.553,0,1,0.447,1,1
	C19.2,5.653,18.752,6.101,18.2,6.101z"/>
</svg>
