<?xml version="1.0" encoding="utf-8"?>
<!DOCTYPE svg PUBLIC "-//W3C//DTD SVG 1.1//EN" "http://www.w3.org/Graphics/SVG/1.1/DTD/svg11.dtd">
<svg xmlns="http://www.w3.org/2000/svg" version="1.1" width="24" height="24" viewBox="0 0 24 24">
	<path d="M12,22l4.325-7.5h-0.013C16.737,13.75,17,12.913,17,12c0-1.5-0.675-2.837-1.725-3.75h5.987C21.737,9.412,22,10.674,22,12 C22,17.522,17.522,22,12,22 M2,12c0-1.825,0.488-3.525,1.337-5l4.337,7.5h0.013C8.55,15.986,10.125,17,12,17 c0.563,0,1.1-0.112,1.612-0.288l-3,5.176C5.75,21.213,2,17.05,2,12 M15.75,12c0,2.07-1.68,3.75-3.75,3.75 c-2.071,0-3.75-1.68-3.75-3.75S9.929,8.25,12,8.25C14.07,8.25,15.75,9.93,15.75,12 M12,2c3.7,0,6.925,2.012,8.65,5H12 c-2.425,0-4.438,1.725-4.9,4.013L4.125,5.85C5.95,3.513,8.8,2,12,2"/>
</svg>
